<?xml version="1.0" encoding="UTF-8"?><svg id="_圖層_1" xmlns="http://www.w3.org/2000/svg" viewBox="0 0 100 100"><path d="m1,19.24C1.13,10.29,7.69,2.66,16.54,1.28c5.96-.93,11.17.86,15.52,4.85,3.01,2.76,4.67,6.4,5.39,10.47.5,2.84.14,5.56-.68,8.27-.35,1.14-.36,1.15.65,1.8,2.46,1.58,5.03,2.95,7.76,4.02,3.27,1.28,6.56,1.37,9.76-.06,2.7-1.21,5.29-2.68,7.92-4.03.67-.34.8-.81.54-1.54-2.85-8.12.8-16.08,6.13-20.2,6.36-4.91,15.35-5.08,21.86-.37,9.39,6.79,10.65,21.17.56,29.28-4.1,3.29-8.96,4.5-14.24,3.55-1.05-.19-2.09-.47-3.13-.75-.5-.13-.8-.08-1.07.45-1.06,2.03-2.2,4.03-3.28,6.05-2.44,4.57-2.46,9.17-.08,13.76,1.1,2.12,2.29,4.2,3.43,6.31.24.45.57.4.95.3,1.33-.33,2.65-.7,4-.97,2.23-.46,4.45-.12,6.6.46,6.73,1.82,11.22,6.11,13.15,12.8,2.9,10.08-3.32,21.1-14.7,22.99-4.35.72-8.38-.16-12.17-2.32-5.07-2.89-7.71-7.41-8.77-13.02-.54-2.83-.19-5.56.66-8.27.36-1.13.39-1.17-.66-1.75-2.32-1.27-4.62-2.58-7.01-3.7-3.56-1.67-7.24-1.89-10.85-.15-2.67,1.28-5.26,2.75-7.88,4.12-.47.25-.39.61-.29,1.03.35,1.5.8,3,.97,4.52.44,3.96-.54,7.67-2.63,11.01-4,6.42-9.99,9.34-17.39,8.63-8.29-.79-14.45-6.28-16.13-14.84-1.65-8.4,2.87-16.27,9.77-19.67,4.27-2.1,8.74-2.66,13.37-1.18,1.78.57,1.43.71,2.44-.91,1.5-2.39,2.8-4.89,3.78-7.55,1.12-3.05,1.23-6.06.08-9.14-1.1-2.97-2.61-5.71-4.24-8.41-.38-.63-.82-.74-1.5-.51-5.51,1.86-10.77,1.13-15.66-1.87-4.44-2.72-6.94-6.86-8-11.89-.25-1.19-.32-2.42-.48-3.63Zm76.8,11.98c3.66,1.23,9.75.09,13.17-4.98,3.19-4.74,2.82-11.62-1.81-15.94-4.41-4.11-11.25-4.41-15.96-.78-4.43,3.41-5.63,8.99-4.4,12.77,1-.88,2-1.7,2.94-2.59,1.69-1.6,3.3-3.28,5.01-4.84,1.93-1.76,4.51-2.05,6.67-.88,3.78,2.05,4.4,6.73,1.33,9.81-1.51,1.52-3.01,3.06-4.48,4.62-.84.88-1.61,1.82-2.48,2.81Zm-46.63-9.03c.1-.03.19-.06.29-.09.06-.53.12-1.05.18-1.58.87-8.21-6.61-14.96-14.71-13.33-4.93.99-9.66,5.58-9.9,11.57-.23,5.52,3.22,10.12,7.29,11.89,2.27.98,4.62,1.19,7.04.91.26-.03.51-.14.76-.22-.12-.26-.19-.57-.37-.77-1.88-2-3.79-3.97-5.69-5.96-.52-.54-1.09-1.04-1.52-1.64-2.66-3.73-.65-8.71,3.85-9.57,2.3-.44,4.07.56,5.63,2.11,1.69,1.67,3.39,3.32,5.11,4.96.64.61,1.35,1.16,2.03,1.74Zm-8.76,46.67c-4.15-1.29-9.63-.07-13.07,4.57-3.51,4.74-3.03,12.26,1.79,16.52,4.31,3.8,11.43,4.16,16.19.22,4.03-3.33,5.08-9,3.94-12.31-.23.17-.47.3-.66.48-2.02,1.9-4.06,3.77-6.03,5.71-1.31,1.28-2.65,2.37-4.57,2.63-3.61.49-7.14-3.01-6.63-6.61.24-1.69,1.09-2.99,2.28-4.18,2.25-2.26,4.42-4.6,6.75-7.03Zm46.37,8.97c-1.22,4.38.23,10.19,5.56,13.44,4.64,2.84,11.83,2.36,16.04-2.84,3.83-4.73,3.54-11.75-.66-16.19-3.03-3.2-9.54-5.11-11.9-3.4.9,1.04,1.75,2.11,2.69,3.1,1.36,1.42,2.83,2.75,4.19,4.18,1.85,1.94,2.59,4.2,1.58,6.8-1.57,4.05-7.1,5.25-10.35,1.61-1.89-2.11-4.07-3.97-6.13-5.94-.28-.27-.62-.48-1.01-.77Z"/></svg>